<svg width="25" height="25" viewBox="0 0 25 25" fill="none" xmlns="http://www.w3.org/2000/svg">
<path d="M4.19922 12.2002C4.19922 12.4654 4.30458 12.7198 4.49211 12.9073C4.67965 13.0948 4.934 13.2002 5.19922 13.2002C5.46444 13.2002 5.71879 13.0948 5.90633 12.9073C6.09386 12.7198 6.19922 12.4654 6.19922 12.2002C6.19922 11.935 6.09386 11.6806 5.90633 11.4931C5.71879 11.3056 5.46444 11.2002 5.19922 11.2002C4.934 11.2002 4.67965 11.3056 4.49211 11.4931C4.30458 11.6806 4.19922 11.935 4.19922 12.2002ZM11.1992 12.2002C11.1992 12.4654 11.3046 12.7198 11.4921 12.9073C11.6796 13.0948 11.934 13.2002 12.1992 13.2002C12.4644 13.2002 12.7188 13.0948 12.9063 12.9073C13.0939 12.7198 13.1992 12.4654 13.1992 12.2002C13.1992 11.935 13.0939 11.6806 12.9063 11.4931C12.7188 11.3056 12.4644 11.2002 12.1992 11.2002C11.934 11.2002 11.6796 11.3056 11.4921 11.4931C11.3046 11.6806 11.1992 11.935 11.1992 12.2002ZM18.1992 12.2002C18.1992 12.4654 18.3046 12.7198 18.4921 12.9073C18.6796 13.0948 18.934 13.2002 19.1992 13.2002C19.4644 13.2002 19.7188 13.0948 19.9063 12.9073C20.0939 12.7198 20.1992 12.4654 20.1992 12.2002C20.1992 11.935 20.0939 11.6806 19.9063 11.4931C19.7188 11.3056 19.4644 11.2002 19.1992 11.2002C18.934 11.2002 18.6796 11.3056 18.4921 11.4931C18.3046 11.6806 18.1992 11.935 18.1992 12.2002Z" fill="#1D1D1D" stroke="#1D1D1D" stroke-width="0.76" stroke-linecap="round" stroke-linejoin="round"/>
</svg>
