<svg width="80" height="51" viewBox="0 0 80 51" fill="none" xmlns="http://www.w3.org/2000/svg">
<path d="M79.9343 41.956L75.0579 6.04918C74.5553 2.08085 71.1855 -0.44287 67.2557 0.0647066C65.4461 0.295423 63.5034 1.76493 62.3793 3.05694C62.3427 3.09386 62.4158 3.0108 62.3793 3.05694C62.297 3.15846 62.4524 2.95543 62.3793 3.05694C62.1874 3.31534 61.5685 3.76827 61.404 4.05435L41.8984 38.9638C39.9061 42.4522 41.3788 46.926 44.8242 48.9379C48.2697 50.9497 52.5847 49.4249 54.577 45.9456L63.3546 29.9871L65.3051 43.9508C65.8078 47.9191 69.1776 50.4429 73.1074 49.9353H74.0826C78.0125 49.4277 80.437 45.9243 79.9343 41.956Z" fill="url(#paint0_linear_3189_36215)"/>
<path d="M55.9343 41.956L51.0579 6.04918C50.5553 2.08085 47.1855 -0.44287 43.2557 0.0647066C41.4461 0.295423 39.5034 1.76493 38.3793 3.05694C38.3427 3.09386 38.4158 3.0108 38.3793 3.05694C38.297 3.15846 38.4524 2.95543 38.3793 3.05694C38.1874 3.31534 37.5685 3.76827 37.404 4.05435L17.8984 38.9638C15.9061 42.4522 17.3788 46.926 20.8242 48.9379C24.2697 50.9497 28.5847 49.4249 30.577 45.9456L39.3546 29.9871L41.3051 43.9508C41.8078 47.9191 45.1776 50.4429 49.1074 49.9353H50.0826C54.0125 49.4277 56.437 45.9243 55.9343 41.956Z" fill="url(#paint1_linear_3189_36215)"/>
<path d="M24.0385 1C22.509 1 20.2434 1.2037 19.0661 2C18.445 2.30556 18.6 2.50926 18.0716 3L2.15964 17C-0.83459 19.7685 -0.602839 25.0093 2.15964 28C4.92212 30.9907 10.1049 30.7593 13.0991 28L16.0826 25V44C16.0826 48.0741 18.9652 51 23.044 51C27.1229 51 31 48.0741 31 44V8C31 3.92593 27.1229 1 23.044 1H24.0385Z" fill="url(#paint2_linear_3189_36215)"/>
<defs>
<linearGradient id="paint0_linear_3189_36215" x1="34.0721" y1="25.1438" x2="84.5359" y2="24.937" gradientUnits="userSpaceOnUse">
<stop stop-color="#4A4FFF"/>
<stop offset="0.6" stop-color="#5C8AFF"/>
<stop offset="1" stop-color="#5C99FF" stop-opacity="0.9"/>
</linearGradient>
<linearGradient id="paint1_linear_3189_36215" x1="10.0721" y1="25.1438" x2="60.5267" y2="24.937" gradientUnits="userSpaceOnUse">
<stop stop-color="#4A4FFF"/>
<stop offset="0.6" stop-color="#5C8AFF"/>
<stop offset="1" stop-color="#5C99FF" stop-opacity="0.9"/>
</linearGradient>
<linearGradient id="paint2_linear_3189_36215" x1="0.000117807" y1="26" x2="31.0094" y2="26" gradientUnits="userSpaceOnUse">
<stop stop-color="#4A4FFF"/>
<stop offset="0.6" stop-color="#5C8AFF"/>
<stop offset="1" stop-color="#5C99FF" stop-opacity="0.9"/>
</linearGradient>
</defs>
</svg>
