<svg width="24" height="24" viewBox="0 0 24 24" fill="none" xmlns="http://www.w3.org/2000/svg">
<path d="M7.42356 16.9403L7.77913 17.2962L9.24513 18.7642C10.4711 19.9902 11.0841 20.6042 11.7151 20.6042C11.9801 20.6042 12.2411 20.5362 12.4721 20.4042C13.0201 20.0912 13.2501 19.2552 13.7111 17.5822C13.9131 16.8472 14.0141 16.4802 14.2261 16.1832C14.3195 16.0538 14.4268 15.9365 14.5481 15.8312C14.8231 15.5932 15.1801 15.4592 15.8931 15.1912L17.7371 14.4982C20.4011 13.4982 21.7331 12.9972 21.9671 11.9122C22.2021 10.8262 21.1971 9.81918 19.1841 7.80518L16.2191 4.83818C14.1921 2.80818 13.1791 1.79518 12.0901 2.03518C11.0011 2.27518 10.5091 3.62218 9.52213 6.31518L8.85413 8.13818C8.59113 8.85618 8.45913 9.21518 8.22213 9.49318C8.11618 9.61817 7.99528 9.72967 7.86213 9.82518C7.56613 10.0382 7.19813 10.1392 6.46213 10.3422C4.80213 10.8002 3.97113 11.0292 3.65813 11.5722C3.52283 11.8072 3.45242 12.074 3.45413 12.3452C3.45813 12.9722 4.06713 13.5812 5.28413 14.8002L6.70013 16.2162L7.42356 16.9403ZM7.42356 16.9403L3 21.5" stroke="current" stroke-linecap="round"/>
</svg>
