<svg width="24" height="24" viewBox="0 0 24 24" fill="none" xmlns="http://www.w3.org/2000/svg">
    <path d="M15.8653 5.19143L15.8652 5.19128C14.84 4.16456 14.1106 3.43633 13.5048 2.98676C12.9059 2.54234 12.5317 2.44965 12.1976 2.52328C11.8644 2.59671 11.5646 2.83753 11.2088 3.49074C10.8489 4.15155 10.494 5.11589 9.99643 6.47351L9.99643 6.47352L9.99148 6.48702L9.99147 6.48706L9.3235 8.30997C9.3235 8.30998 9.32349 8.31 9.32348 8.31002C9.31384 8.33634 9.30433 8.36233 9.29494 8.388C9.06068 9.02826 8.89956 9.46863 8.60304 9.81675C8.4708 9.97269 8.31993 10.1118 8.15381 10.231M15.8653 5.19143L3.954 12.3418C3.95285 12.1592 4.00025 11.9797 4.09133 11.8215C4.16246 11.6982 4.31823 11.559 4.74039 11.3894C5.16179 11.2202 5.75107 11.0568 6.59198 10.8248L6.59208 10.8248L6.59495 10.824L6.5951 10.824L6.60329 10.8217C6.63199 10.8138 6.6603 10.806 6.68824 10.7983C7.33634 10.6198 7.78506 10.4963 8.15381 10.231M15.8653 5.19143L18.8303 8.15843L18.8304 8.15846M15.8653 5.19143L18.8304 8.15846M8.15381 10.231C8.15368 10.2311 8.15356 10.2312 8.15343 10.2313L7.86206 9.82507L8.15405 10.2308C8.15397 10.2309 8.15389 10.231 8.15381 10.231ZM18.8304 8.15846C19.8486 9.17715 20.5706 9.9018 21.0167 10.5041C21.4575 11.0992 21.5506 11.4723 21.4783 11.8062L21.4782 11.8066M18.8304 8.15846L21.4782 11.8066M21.4782 11.8066C21.4064 12.1396 21.1679 12.4404 20.5206 12.7997C19.8656 13.1633 18.9088 13.5241 17.5613 14.0299L17.5611 14.03M21.4782 11.8066L17.5611 14.03M17.5611 14.03L15.7171 14.723L15.7171 14.723M17.5611 14.03L15.7171 14.723M15.7171 14.723L15.7141 14.7241C15.6862 14.7346 15.6586 14.7449 15.6314 14.7551C15.0004 14.992 14.5641 15.1558 14.2208 15.4529L14.2202 15.4534M15.7171 14.723L14.2202 15.4534M14.2202 15.4534C14.07 15.5838 13.9366 15.7296 13.8206 15.8904L13.819 15.8925M14.2202 15.4534L13.819 15.8925M13.819 15.8925C13.5544 16.2633 13.4312 16.7124 13.2517 17.3663M13.819 15.8925L13.2517 17.3663M13.2279 17.4531L13.2279 17.453L13.2289 17.4495L13.2279 17.4531ZM13.2279 17.4531C12.9944 18.3003 12.8301 18.8937 12.6598 19.3176C12.489 19.7425 12.3486 19.8987 12.224 19.9698L12.2239 19.9699M13.2279 17.4531L12.2239 19.9699M12.2239 19.9699C12.0698 20.058 11.8945 20.104 11.715 20.104C11.5724 20.104 11.3739 20.0383 11.0162 19.7538C10.6593 19.47 10.2243 19.0361 9.60437 18.4162L9.5988 18.4107L9.59856 18.4104L8.1328 16.9427L8.13273 16.9426M12.2239 19.9699L8.13273 16.9426M8.13273 16.9426L7.05373 15.8626L7.05356 15.8624M8.13273 16.9426L7.05356 15.8624M7.05356 15.8624L5.63785 14.4467M7.05356 15.8624L5.63785 14.4467M13.2517 17.3663C13.2443 17.3935 13.2367 17.4211 13.229 17.4491L13.2517 17.3663ZM5.63785 14.4467L5.63756 14.4464M5.63785 14.4467L5.63756 14.4464M5.63756 14.4464L5.63201 14.4409C5.63201 14.4409 5.63201 14.4409 5.632 14.4409C5.01672 13.8246 4.5861 13.3922 4.30401 13.0374C4.02135 12.682 3.95492 12.4842 3.954 12.3418L5.63756 14.4464Z" stroke="#5A5A5A"/>
    <path d="M7.00005 16.5001L2.68879 20.8152C2.5833 20.9208 2.52405 21.064 2.52405 21.2132V21.2249C2.52405 21.5294 2.77088 21.7763 3.07537 21.7763C3.2217 21.7763 3.36203 21.7181 3.46544 21.6146L7.77892 17.2963L7.00005 16.5001Z" fill="#5A5A5A"/>
</svg>
